<svg xmlns="http://www.w3.org/2000/svg" viewBox="0 10.59 72.69 17.81" role="img" aria-label="Transport Victoria">
  <g>
    <polygon points="0.11,17.42 6.57,17.42 6.57,28.4 9.02,28.4 9.02,14.96 0.11,14.96"/>
    <polygon points="20.09,17.42 13.64,17.42 13.64,28.4 11.18,28.4 11.18,14.96 20.09,14.96"/>
    <circle cx="1.34" cy="11.93" r="1.34"/>
    <circle cx="5.72" cy="11.93" r="1.34"/>
    <circle cx="10.1" cy="11.93" r="1.34"/>
    <circle cx="14.48" cy="11.93" r="1.34"/>
    <circle cx="18.86" cy="11.93" r="1.34"/>
    <path d="M31.33,11.4h-0.02h-5.73h-0.02v0.02v1.1v0.02h0.02h2.25v5.9v0.02h0.02h1.21h0.02v-0.02v-5.9h2.25h0.02v-0.02v-1.1V11.4L31.33,11.4z"/>
    <path d="M34.06,13.3c-0.65,0-1.16,0.3-1.47,0.87l-0.06-0.72l0-0.02h-0.02h-1.14h-0.02v0.02v4.99v0.02h0.02h1.21h0.02v-0.02v-2.26c0-1.03,0.51-1.65,1.37-1.65c0.38,0,0.59,0.07,0.76,0.13l0.01,0l0.02,0.01l0-0.02l0.06-1.23l0-0.01l-0.01,0c-0.18-0.06-0.32-0.1-0.67-0.1C34.1,13.3,34.08,13.3,34.06,13.3L34.06,13.3z"/>
    <path d="M37.84,13.3c-1.56,0-2.61,1.06-2.61,2.64c0,0.74,0.26,1.41,0.72,1.89c0.47,0.48,1.14,0.75,1.89,0.75c0.6,0,1.26-0.26,1.57-0.61c0.14,0.26,0.42,0.55,0.98,0.55c0.25,0,0.47-0.04,0.68-0.12l0.01,0l0-0.01l0.07-0.89l0-0.02l-0.02,0.01c-0.08,0.02-0.19,0.04-0.26,0.04c-0.22,0-0.31-0.1-0.31-0.33v-3.74v-0.02h-0.02h-1.22h-0.02v0.02v0.42C38.93,13.49,38.44,13.3,37.84,13.3L37.84,13.3z M37.89,17.53c-0.81,0-1.42-0.68-1.42-1.58c0-0.93,0.58-1.58,1.42-1.58c0.83,0,1.41,0.65,1.41,1.58C39.29,16.85,38.69,17.53,37.89,17.53L37.89,17.53z"/>
    <path d="M44.84,13.3c-0.63,0-1.2,0.24-1.62,0.67l-0.07-0.53l0-0.01h-0.01h-1.11H42v0.02v4.99v0.02h0.02h1.21h0.02v-0.02v-2.82c0-0.7,0.5-1.21,1.19-1.21c0.7,0,1.04,0.38,1.04,1.17v2.86v0.02h0.02h1.22h0.02v-0.02v-3.31C46.74,14.07,45.94,13.3,44.84,13.3L44.84,13.3z"/>
    <path d="M49.75,13.3c-1.23,0-2.08,0.62-2.08,1.52c0,0.85,0.53,1.36,1.62,1.55c0.93,0.16,1.42,0.26,1.42,0.63c0,0.44-0.52,0.53-0.96,0.53c-0.6,0-1.03-0.25-1.15-0.68l-0.01-0.02l-0.02,0.01l-1.03,0.4l-0.01,0.01l0,0.01c0.22,0.81,1.09,1.33,2.22,1.33c1.34,0,2.2-0.63,2.2-1.61c0-0.9-0.56-1.39-1.82-1.59c-0.9-0.14-1.23-0.22-1.23-0.57c0-0.28,0.34-0.47,0.85-0.47c0.51,0,0.88,0.23,0.97,0.61l0,0.02l0.02-0.01l1.02-0.36l0.01-0.01l0-0.01C51.58,13.79,50.83,13.3,49.75,13.3L49.75,13.3z"/>
    <path d="M55.61,13.3c-0.59,0-1.11,0.19-1.51,0.56v-0.42v-0.02h-0.02h-1.22h-0.02v0.02v7.02v0.02h0.02h1.22h0.02v-0.02v-2.46c0.39,0.38,0.9,0.57,1.51,0.57c0.73,0,1.38-0.27,1.85-0.75c0.46-0.48,0.71-1.15,0.71-1.89C58.17,14.39,57.12,13.3,55.61,13.3L55.61,13.3z M55.5,17.53c-0.82,0-1.41-0.67-1.41-1.58c0-0.93,0.58-1.58,1.41-1.58c0.83,0,1.43,0.67,1.43,1.58C56.93,16.85,56.32,17.53,55.5,17.53L55.5,17.53z"/>
    <path d="M61.5,13.31c-1.59,0-2.66,1.06-2.66,2.64c0,0.77,0.25,1.42,0.74,1.9c0.48,0.48,1.15,0.73,1.92,0.73c0.77,0,1.44-0.25,1.92-0.73c0.49-0.48,0.75-1.14,0.75-1.91C64.17,14.37,63.09,13.31,61.5,13.31L61.5,13.31z M61.5,17.53c-0.81,0-1.41-0.67-1.41-1.58c0-0.93,0.58-1.58,1.41-1.58c0.83,0,1.42,0.65,1.42,1.58S62.33,17.53,61.5,17.53L61.5,17.53z"/>
    <path d="M67.71,13.3c-0.65,0-1.16,0.3-1.47,0.87l-0.06-0.72l0-0.02h-0.02h-1.14H65v0.02v4.99v0.02h0.02h1.21h0.02v-0.02v-2.26c0-1.03,0.51-1.65,1.37-1.65c0.38,0,0.59,0.07,0.76,0.13l0.01,0l0.02,0.01l0-0.02l0.06-1.23l0-0.01l-0.01,0c-0.18-0.06-0.32-0.1-0.67-0.1C67.75,13.3,67.73,13.3,67.71,13.3L67.71,13.3z"/>
    <path d="M71.16,12.07l-0.02,0l-1.21,0.11l-0.02,0v0.02v1.23l-0.86,0.07l-0.02,0v0.02v0.97v0.02h0.02h0.86v2.56c0,0.94,0.68,1.52,1.76,1.52c0.49,0,0.87-0.09,1.15-0.26l0.01-0.01l0-0.01l-0.15-0.99l0-0.02l-0.02,0.01c-0.24,0.13-0.5,0.2-0.76,0.2c-0.47,0-0.74-0.22-0.74-0.6v-2.4h1.53h0.02v-0.02v-1.04v-0.02h-0.02h-1.53v-1.34V12.07L71.16,12.07z"/>
    <path d="M32.41,21.26h-0.02h-1.31h-0.01l0,0.01l-1.89,4.98l-0.19,0.51l-0.19-0.51l-1.89-4.98l0-0.01h-0.01h-1.31h-0.02l0.01,0.02l2.73,7.03l0,0.01h0.01h1.35h0.01l0-0.01l2.73-7.03L32.41,21.26L32.41,21.26z"/>
    <path d="M33.7,21.1c-0.44,0-0.76,0.3-0.76,0.71c0,0.43,0.32,0.74,0.76,0.74c0.45,0,0.76-0.3,0.76-0.74C34.46,21.4,34.14,21.1,33.7,21.1L33.7,21.1z M34.32,23.29h-0.02H33.1h-0.02v0.02v4.99v0.02h0.02h1.21h0.02V28.3V23.3V23.29L34.32,23.29z"/>
    <path d="M37.71,23.16c-1.51,0-2.57,1.09-2.57,2.64c0,1.55,1.06,2.64,2.57,2.64c1.11,0,2-0.57,2.32-1.49l0.01-0.02l-0.02-0.01l-1.14-0.39l-0.02-0.01l-0.01,0.02c-0.18,0.51-0.6,0.81-1.14,0.81c-0.79,0-1.33-0.62-1.33-1.55c0-0.93,0.53-1.55,1.33-1.55c0.54,0,0.97,0.3,1.14,0.81l0.01,0.02l0.02-0.01l1.14-0.39l0.02-0.01l-0.01-0.02C39.71,23.73,38.82,23.16,37.71,23.16L37.71,23.16z"/>
    <path d="M42.65,21.93l-0.02,0l-1.21,0.11l-0.02,0v0.02v1.23l-0.86,0.07l-0.02,0v0.02v0.97v0.02h0.02h0.86v2.56c0,0.94,0.68,1.52,1.76,1.52c0.49,0,0.87-0.09,1.15-0.26l0.01-0.01l0-0.01l-0.15-0.99l0-0.02l-0.02,0.01c-0.24,0.13-0.5,0.2-0.76,0.2c-0.47,0-0.74-0.22-0.74-0.6v-2.4h1.53h0.02v-0.02V23.3v-0.02h-0.02h-1.53v-1.34V21.93L42.65,21.93z"/>
    <path d="M47.43,23.16c-1.59,0-2.66,1.06-2.66,2.64c0,0.77,0.25,1.42,0.74,1.9c0.48,0.48,1.15,0.73,1.92,0.73c0.77,0,1.44-0.25,1.92-0.73c0.49-0.48,0.75-1.14,0.75-1.91C50.1,24.22,49.02,23.16,47.43,23.16L47.43,23.16z M47.43,27.38c-0.81,0-1.41-0.67-1.41-1.58c0-0.93,0.58-1.58,1.41-1.58c0.83,0,1.42,0.65,1.42,1.58C48.84,26.73,48.26,27.38,47.43,27.38L47.43,27.38z"/>
    <path d="M53.66,23.23c-0.65,0-1.16,0.3-1.47,0.87l-0.06-0.72l0-0.02h-0.02h-1.14h-0.02v0.02v4.99v0.02h0.02h1.21h0.02v-0.02v-2.26c0-1.03,0.51-1.65,1.37-1.65c0.38,0,0.59,0.07,0.76,0.13l0.01,0l0.02,0.01l0-0.02l0.06-1.23l0-0.01l-0.01,0c-0.18-0.06-0.32-0.1-0.67-0.1C53.7,23.23,53.68,23.23,53.66,23.23L53.66,23.23z"/>
    <path d="M55.84,21.1c-0.44,0-0.76,0.3-0.76,0.71c0,0.43,0.32,0.74,0.76,0.74c0.45,0,0.76-0.3,0.76-0.74C56.6,21.4,56.28,21.1,55.84,21.1L55.84,21.1z M56.46,23.29h-0.02h-1.21h-0.02v0.02v4.99v0.02h0.02h1.21h0.02V28.3V23.3V23.29L56.46,23.29z"/>
    <path d="M59.92,23.16c-1.56,0-2.61,1.06-2.61,2.64c0,0.74,0.26,1.41,0.72,1.89c0.47,0.48,1.14,0.75,1.89,0.75c0.6,0,1.26-0.26,1.57-0.61c0.14,0.26,0.42,0.55,0.98,0.55c0.25,0,0.47-0.04,0.68-0.12l0.01,0l0-0.01l0.07-0.89l0-0.02l-0.02,0.01c-0.07,0.02-0.19,0.04-0.26,0.04c-0.22,0-0.31-0.1-0.31-0.33V23.3v-0.02h-0.02h-1.22h-0.02v0.02v0.42C61.01,23.35,60.52,23.16,59.92,23.16L59.92,23.16z M59.97,27.38c-0.81,0-1.42-0.68-1.42-1.58c0-0.93,0.58-1.58,1.42-1.58c0.83,0,1.41,0.65,1.41,1.58C61.38,26.7,60.77,27.38,59.97,27.38L59.97,27.38z"/>
  </g>
</svg>
